<svg width="49" height="49" viewBox="0 0 49 49" fill="none" xmlns="http://www.w3.org/2000/svg">
<path d="M13.3766 26.343C12.2938 26.4523 10.2539 26.9281 9.14375 27.907C5.80781 30.8055 7.80391 36.1102 14.5578 36.1102C18.4844 36.1102 22.4055 33.6109 25.4844 29.6023C21.0984 27.475 17.3852 25.9492 13.3766 26.343ZM38.5602 30.007C44.0344 31.8336 47.0203 32.3586 47.6766 32.457C48.5564 29.8965 49.0036 27.2074 49 24.5C49 10.9703 38.0297 0 24.5 0C10.9703 0 0 10.9703 0 24.5C0 38.0297 10.9703 49 24.5 49C33.0258 49 40.5344 44.6414 44.9258 38.0352C40.7914 36.4055 33.2445 33.3867 29.2414 31.4672C25.4188 36.1539 20.4859 39.0031 15.3672 39.0031C6.70469 39.0031 3.76797 31.4508 7.86406 26.4797C8.75547 25.3969 10.2812 24.3633 12.6383 23.7781C16.3297 22.8758 22.2086 24.3414 27.7156 26.1516C28.7055 24.3305 29.5422 22.3289 30.1602 20.1961H13.1852V18.4844H21.9352V15.4109H11.3367V13.6992H21.9352V9.31875C21.9352 9.31875 21.9352 8.58047 22.6844 8.58047H26.9609V13.6992H37.4445V15.4109H26.9664V18.4844H35.5195C34.6992 21.8258 33.4578 24.9047 31.8992 27.6062C34.4969 28.5414 36.8266 29.4273 38.5602 30.007Z" fill="black" fill-opacity="0.45"/>
</svg>
