<svg width="28" height="28" viewBox="0 0 28 28" fill="none" xmlns="http://www.w3.org/2000/svg">
<path d="M14.0017 1.17138e-06C6.26571 -0.00312699 0 6.25946 0 13.9892C0 20.1016 3.91959 25.2975 9.37824 27.2056C10.1134 27.3902 10.0007 26.8678 10.0007 26.5112V24.0869C5.75582 24.5842 5.58377 21.7752 5.29911 21.3059C4.72353 20.3237 3.36278 20.0734 3.76944 19.6042C4.73604 19.1068 5.72141 19.7293 6.86319 21.4154C7.68903 22.6385 9.30003 22.4321 10.1165 22.2287C10.2948 21.4936 10.6764 20.8367 11.202 20.3268C6.80376 19.5385 4.97065 16.8546 4.97065 13.6638C4.97065 12.1154 5.48054 10.6921 6.48156 9.54403C5.84341 7.65149 6.54099 6.0311 6.63484 5.79023C8.4523 5.62757 10.3417 7.09155 10.4887 7.20729C11.521 6.92889 12.7003 6.78186 14.0204 6.78186C15.3468 6.78186 16.5292 6.93514 17.5709 7.21668C17.9244 6.94765 19.6762 5.69013 21.3654 5.84341C21.4561 6.08428 22.138 7.66713 21.5374 9.53465C22.5509 10.6858 23.0671 12.1216 23.0671 13.6732C23.0671 16.8702 21.2215 19.5573 16.8108 20.3331C17.1885 20.7046 17.4885 21.1477 17.6931 21.6364C17.8978 22.1252 18.003 22.6498 18.0026 23.1797V26.6989C18.0276 26.9804 18.0026 27.2588 18.4718 27.2588C24.0118 25.3913 28.0002 20.1579 28.0002 13.9923C28.0002 6.25946 21.7314 1.17138e-06 14.0017 1.17138e-06Z" fill="black" fill-opacity="0.45"/>
</svg>
