<svg width="28" height="28" viewBox="0 0 28 28" fill="none" xmlns="http://www.w3.org/2000/svg">
<path d="M24.7 23.0281C24.7063 23.0188 24.7156 23.0094 24.7219 23C26.7687 20.5656 28 17.4281 28 14C28 10.5719 26.7688 7.43437 24.725 5C24.7188 4.99062 24.7094 4.98438 24.7031 4.975C24.6688 4.93437 24.6375 4.89687 24.6031 4.85938C24.5906 4.84375 24.5781 4.83125 24.5656 4.81563L24.4375 4.66875L24.4344 4.66563C24.3875 4.6125 24.3375 4.55937 24.2906 4.50625L24.2875 4.50313C24.1875 4.39688 24.0875 4.29063 23.9844 4.1875L23.9813 4.18437L23.8312 4.03438L23.8219 4.025C23.775 3.97813 23.7281 3.93438 23.6812 3.89062C23.6656 3.875 23.65 3.85938 23.6313 3.84375C23.6 3.8125 23.5688 3.78437 23.5375 3.75625C23.5281 3.74687 23.5156 3.7375 23.5063 3.725C21.0125 1.4125 17.6719 0 14 0C10.3281 0 6.9875 1.4125 4.49062 3.725C4.48125 3.73438 4.46875 3.74375 4.45937 3.75625C4.42812 3.78437 4.39687 3.81563 4.36562 3.84688C4.35 3.8625 4.33438 3.87813 4.31563 3.89375C4.26875 3.9375 4.22188 3.98437 4.175 4.02812L4.16563 4.0375L4.01562 4.1875L4.0125 4.19063C3.90937 4.29375 3.80937 4.4 3.70937 4.50625L3.70625 4.50938C3.65625 4.5625 3.60938 4.61562 3.5625 4.66875L3.55937 4.67188C3.51562 4.71875 3.47188 4.76875 3.43125 4.81875C3.41875 4.83437 3.40625 4.84688 3.39375 4.8625C3.35938 4.9 3.32812 4.94063 3.29375 4.97813C3.2875 4.9875 3.27812 4.99375 3.27187 5.00313C1.23125 7.43438 0 10.5719 0 14C0 17.4281 1.23125 20.5656 3.275 23C3.28125 23.0094 3.29063 23.0188 3.29688 23.0281L3.39375 23.1437C3.40625 23.1594 3.41875 23.1719 3.43125 23.1875L3.55937 23.3344C3.55937 23.3375 3.5625 23.3375 3.5625 23.3406C3.60938 23.3938 3.65625 23.4469 3.70625 23.4969L3.70937 23.5C3.80937 23.6063 3.90938 23.7125 4.00938 23.8156L4.0125 23.8188C4.0625 23.8687 4.10938 23.9188 4.15938 23.9656L4.16875 23.975C4.27187 24.0781 4.37813 24.1781 4.48438 24.275C6.9875 26.5875 10.3281 28 14 28C17.6719 28 21.0125 26.5875 23.5094 24.275C23.6158 24.1774 23.72 24.0774 23.8219 23.975L23.8312 23.9656C23.8812 23.9156 23.9312 23.8687 23.9781 23.8188L23.9813 23.8156C24.0844 23.7125 24.1844 23.6063 24.2812 23.5L24.2844 23.4969C24.3312 23.4438 24.3813 23.3938 24.4281 23.3406C24.4281 23.3375 24.4312 23.3375 24.4312 23.3344C24.475 23.2875 24.5188 23.2375 24.5594 23.1875C24.5719 23.1719 24.5844 23.1594 24.5969 23.1437C24.6322 23.1061 24.6666 23.0675 24.7 23.0281ZM24.8281 18.5719C24.3969 19.5906 23.8281 20.5344 23.1344 21.3906C22.3531 20.7154 21.4988 20.1295 20.5875 19.6437C20.95 18.1781 21.175 16.5688 21.2344 14.875H25.7188C25.625 16.1531 25.325 17.3937 24.8281 18.5719ZM25.7188 13.125H21.2344C21.175 11.4312 20.95 9.82187 20.5875 8.35625C21.5031 7.86875 22.3562 7.28125 23.1344 6.60938C24.6424 8.46555 25.5445 10.7398 25.7188 13.125ZM18.5719 3.17188C19.8125 3.69688 20.9406 4.42188 21.9344 5.33437C21.3571 5.82592 20.7357 6.26318 20.0781 6.64062C19.5875 5.23438 18.9594 4.0125 18.2281 3.03438C18.3438 3.07813 18.4594 3.125 18.5719 3.17188ZM15.7406 25.0656C15.4531 25.2906 15.1656 25.4625 14.875 25.5781V19.7812C16.115 19.8678 17.3343 20.1439 18.4906 20.6C18.2313 21.3687 17.9312 22.0781 17.5844 22.7188C17.0406 23.7313 16.4031 24.5406 15.7406 25.0656ZM17.5844 5.28125C17.9281 5.925 18.2313 6.63437 18.4906 7.4C17.3343 7.85611 16.115 8.13224 14.875 8.21875V2.425C15.1625 2.54063 15.4531 2.70937 15.7406 2.9375C16.4031 3.45937 17.0406 4.26875 17.5844 5.28125ZM14.875 18.0281V14.875H19.4844C19.4344 16.2563 19.2625 17.5969 18.975 18.8687L18.9656 18.9062C17.6542 18.4089 16.275 18.1129 14.875 18.0281ZM14.875 13.125V9.97188C16.3062 9.88438 17.6813 9.58125 18.9656 9.09375L18.975 9.13125C19.2625 10.4031 19.4344 11.7406 19.4844 13.125H14.875ZM13.125 14.875V18.0281C11.6938 18.1156 10.3188 18.4188 9.03438 18.9062L9.025 18.8687C8.7375 17.5969 8.56563 16.2594 8.51562 14.875H13.125ZM8.51562 13.125C8.56563 11.7437 8.7375 10.4031 9.025 9.13125L9.03438 9.09375C10.3188 9.58125 11.6906 9.88438 13.125 9.97188V13.125H8.51562ZM13.125 19.7812V25.575C12.8375 25.4594 12.5469 25.2906 12.2594 25.0625C11.5969 24.5406 10.9563 23.7281 10.4125 22.7156C10.0688 22.0719 9.76562 21.3625 9.50625 20.5969C10.6688 20.1406 11.8781 19.8687 13.125 19.7812ZM13.125 8.21875C11.885 8.13224 10.6657 7.85611 9.50937 7.4C9.76875 6.63125 10.0687 5.92188 10.4156 5.28125C10.9594 4.26875 11.5969 3.45625 12.2625 2.93437C12.55 2.70937 12.8375 2.5375 13.1281 2.42188V8.21875H13.125ZM9.42813 3.17188C9.54375 3.125 9.65625 3.07813 9.77188 3.03438C9.04063 4.0125 8.4125 5.23438 7.92188 6.64062C7.26562 6.26562 6.64375 5.82812 6.06563 5.33437C7.05938 4.42188 8.1875 3.69688 9.42813 3.17188ZM3.17188 9.42813C3.60313 8.40938 4.17188 7.46562 4.86562 6.60938C5.64375 7.28125 6.49688 7.86875 7.4125 8.35625C7.05 9.82187 6.825 11.4312 6.76562 13.125H2.28125C2.375 11.8469 2.675 10.6063 3.17188 9.42813ZM2.28125 14.875H6.76562C6.825 16.5688 7.05 18.1781 7.4125 19.6437C6.50119 20.1295 5.64694 20.7154 4.86562 21.3906C3.35759 19.5345 2.45552 17.2602 2.28125 14.875ZM9.42813 24.8281C8.1875 24.3031 7.05938 23.5781 6.06563 22.6656C6.64375 22.1719 7.26562 21.7375 7.92188 21.3594C8.4125 22.7656 9.04063 23.9875 9.77188 24.9656C9.65625 24.9219 9.54063 24.875 9.42813 24.8281ZM18.5719 24.8281C18.4562 24.875 18.3438 24.9219 18.2281 24.9656C18.9594 23.9875 19.5875 22.7656 20.0781 21.3594C20.7344 21.7344 21.3563 22.1719 21.9344 22.6656C20.9461 23.5743 19.8086 24.3059 18.5719 24.8281Z" fill="black" fill-opacity="0.85"/>
</svg>
