<svg width="26" height="29" viewBox="0 0 26 29" fill="none" xmlns="http://www.w3.org/2000/svg">
<path d="M24.36 12.76H21.895V4.64C21.895 2.07713 19.8179 0 17.255 0H8.26501C5.70213 0 3.625 2.07713 3.625 4.64V12.76H1.16C0.518375 12.76 0 13.2784 0 13.92V27.84C0 28.4816 0.518375 29 1.16 29H24.36C25.0016 29 25.52 28.4816 25.52 27.84V13.92C25.52 13.2784 25.0016 12.76 24.36 12.76ZM6.235 4.64C6.235 3.51988 7.14488 2.61 8.26501 2.61H17.255C18.3751 2.61 19.285 3.51988 19.285 4.64V12.76H6.235V4.64ZM22.91 26.39H2.61V15.37H22.91V26.39ZM11.745 21.3513V23.2725C11.745 23.432 11.8755 23.5625 12.035 23.5625H13.485C13.6445 23.5625 13.775 23.432 13.775 23.2725V21.3513C14.0742 21.1364 14.2976 20.8322 14.4129 20.4823C14.5282 20.1325 14.5295 19.7551 14.4167 19.4044C14.3039 19.0537 14.0827 18.7479 13.785 18.531C13.4872 18.3141 13.1284 18.1972 12.76 18.1972C12.3916 18.1972 12.0328 18.3141 11.7351 18.531C11.4374 18.7479 11.2162 19.0537 11.1033 19.4044C10.9905 19.7551 10.9918 20.1325 11.1071 20.4823C11.2224 20.8322 11.4458 21.1364 11.745 21.3513Z" fill="black" fill-opacity="0.85"/>
</svg>
