<svg width="69" height="92" viewBox="0 0 69 92" fill="none" xmlns="http://www.w3.org/2000/svg">
<path d="M42.2422 1.63775L1.63724 42.0741C-0.545748 44.248 -0.545748 47.7593 1.63724 49.9332L42.2422 90.3696C44.4252 92.5435 47.9511 92.5435 50.1341 90.3696L67.1592 73.4152C69.1142 71.4683 69.1142 68.3117 67.1592 66.3648C65.2042 64.4179 62.0344 64.4179 60.0794 66.3648L47.1728 79.2178C46.6295 79.7589 45.8049 79.7589 45.2615 79.2178L12.8355 46.9265C12.2922 46.3854 12.2922 45.5642 12.8355 45.0231L45.2615 12.7318C45.8049 12.1907 46.6295 12.1907 47.1728 12.7318L60.0794 25.5848C62.0344 27.5317 65.2042 27.5317 67.1592 25.5848C69.1142 23.6378 69.1142 20.4813 67.1592 18.5344L50.136 1.58183C47.944 -0.545051 44.4168 -0.527832 42.2422 1.63775Z" fill="url(#paint0_linear_39889_87849)"/>
<defs>
<linearGradient id="paint0_linear_39889_87849" x1="42.618" y1="2.46013e-06" x2="81.1345" y2="23.6" gradientUnits="userSpaceOnUse">
<stop stop-color="#4285EB"/>
<stop offset="1" stop-color="#2EC7FF"/>
</linearGradient>
</defs>
</svg>
