<svg width="69" height="92" viewBox="0 0 69 92" fill="none" xmlns="http://www.w3.org/2000/svg">
<path d="M42.2422 1.63775L1.63724 42.0741C-0.545748 44.248 -0.545748 47.7593 1.63724 49.9332L42.2422 90.3696C44.4252 92.5435 47.9511 92.5435 50.1341 90.3696L67.1592 73.4152C69.1142 71.4683 69.1142 68.3117 67.1592 66.3648C65.2042 64.4179 62.0344 64.4179 60.0794 66.3648L47.1728 79.2178C46.6295 79.7589 45.8049 79.7589 45.2615 79.2178L12.8355 46.9265C12.2922 46.3854 12.2922 45.5642 12.8355 45.0231L45.2615 12.7318C46.6144 11.5693 48.8218 9.21482 52.0634 8.66415C54.4725 8.25489 57.1063 9.15565 59.9648 11.3664C58.0537 9.46327 54.7775 6.20174 50.136 1.58183C47.944 -0.545051 44.4168 -0.527832 42.2422 1.63775Z" fill="url(#paint0_linear_39889_87850)"/>
<defs>
<linearGradient id="paint0_linear_39889_87850" x1="47.7936" y1="-6.42405e-07" x2="28.8577" y2="98.1932" gradientUnits="userSpaceOnUse">
<stop stop-color="#29CDFF"/>
<stop offset="0.378601" stop-color="#148EFF"/>
<stop offset="1" stop-color="#0A60FF"/>
</linearGradient>
</defs>
</svg>
