<svg width="18" height="25" viewBox="0 0 18 25" fill="none" xmlns="http://www.w3.org/2000/svg">
<path d="M16.9897 5.03553C16.5375 4.04716 15.8947 3.15892 15.0743 2.39987C13.4076 0.852713 11.1951 0 8.85013 0C6.50517 0 4.29264 0.852713 2.62597 2.39664C1.80556 3.15892 1.16279 4.04393 0.710594 5.03553C0.239018 6.06912 0 7.16408 0 8.29457V9.16667C0 9.36693 0.161499 9.52842 0.361757 9.52842H2.10594C2.3062 9.52842 2.4677 9.36693 2.4677 9.16667V8.29457C2.4677 5.08075 5.32946 2.4677 8.85013 2.4677C12.3708 2.4677 15.2326 5.08075 15.2326 8.29457C15.2326 9.6124 14.7642 10.8527 13.876 11.8863C12.9974 12.9102 11.7571 13.6434 10.3844 13.9535C9.59948 14.1311 8.89212 14.5736 8.39147 15.2067C7.89257 15.8376 7.62064 16.6182 7.61951 17.4225V18.4367C7.61951 18.637 7.78101 18.7985 7.98127 18.7985H9.72545C9.92571 18.7985 10.0872 18.637 10.0872 18.4367V17.4225C10.0872 16.9154 10.4393 16.4696 10.927 16.3598C12.8133 15.9335 14.5252 14.916 15.7494 13.4948C16.3663 12.7745 16.8475 11.9735 17.1802 11.1047C17.5258 10.2035 17.7003 9.25711 17.7003 8.29457C17.7003 7.16408 17.4612 6.06589 16.9897 5.03553ZM8.85013 21.3824C7.85207 21.3824 7.04134 22.1932 7.04134 23.1912C7.04134 24.1893 7.85207 25 8.85013 25C9.84819 25 10.6589 24.1893 10.6589 23.1912C10.6589 22.1932 9.84819 21.3824 8.85013 21.3824Z" fill="black" fill-opacity="0.85"/>
</svg>
