<svg width="49" height="49" viewBox="0 0 49 49" fill="none" xmlns="http://www.w3.org/2000/svg">
<path d="M24.5 0C10.9703 0 0 10.9703 0 24.5C0 38.0297 10.9703 49 24.5 49C38.0297 49 49 38.0297 49 24.5C49 10.9703 38.0297 0 24.5 0ZM13.7648 12.4414C15.2578 12.4414 16.4719 13.65 16.4719 15.143C16.4719 16.6359 15.2633 17.8445 13.7648 17.8445C13.0483 17.8445 12.3612 17.5599 11.8546 17.0533C11.3479 16.5466 11.0633 15.8595 11.0633 15.143C11.0633 14.4265 11.3479 13.7393 11.8546 13.2327C12.3612 12.726 13.0483 12.4414 13.7648 12.4414ZM16.5648 28.1094C15.8211 30.4227 16.007 29.5695 13.043 36.0117L8.75 33.332C8.75 33.332 13.5461 28.968 14.525 26.9773C15.575 24.8773 13.3711 23.7563 13.3711 23.7563L10.0789 21.7055L11.8672 18.9602C14.35 20.8031 14.5305 20.9617 16.1984 22.6352C17.5 23.9422 17.3305 25.7414 16.5648 28.1094ZM39.9273 31.1172C39.0906 38.9813 28.8586 36.0555 28.8586 36.0555L29.4164 33.8078L31.7844 34.3164C36.1594 34.5898 35.7383 30.7672 35.7383 30.7672V19.6328C35.7711 15.4055 31.768 14.9625 24.5711 17.5383L26.2445 17.9922C26.1078 18.4844 25.5609 19.2609 24.8664 20.1031H34.4914V22.05H29.0719V24.4836H34.4695V26.4359H29.0719V30.5156C29.8867 30.2531 30.6359 29.8867 31.2867 29.3945L30.8109 27.6172L33.3539 26.8297L35.4758 32.0195L32.3422 33.3266L31.7844 31.2594C30.3844 32.3258 27.475 33.8844 22.3891 33.7422C16.9641 33.8844 18.3586 27.6172 18.3586 27.6172L18.4953 27.5461H22.3125C22.2852 28.35 21.9516 29.6625 22.4055 30.3789C22.7773 30.9695 23.7289 31.068 24.3359 31.0953C24.407 31.1008 24.4781 31.1008 24.5492 31.1008V26.4359H19.0258V24.4836H24.5492V22.05H23.1328C21.8914 23.368 20.7539 24.4617 20.7539 24.4617L19.0805 23.0016C20.2672 21.7492 21.4484 19.7695 22.1867 18.4516C21.5906 18.6922 20.9836 18.9547 20.3492 19.2281C19.7367 20.0102 19.0258 20.8141 18.2328 21.607C18.2602 21.6508 15.4984 20.0539 15.4984 20.0539C18.3531 17.6258 19.95 12.4031 19.95 12.4031L23.9148 13.5188C23.9148 13.5188 23.5922 14.2844 22.9086 15.4656C38.7844 10.9648 39.7195 18.2273 39.7195 18.2273C39.7195 18.2273 40.7641 23.2477 39.9273 31.1172Z" fill="black" fill-opacity="0.45"/>
</svg>
