<svg width="27" height="29" viewBox="0 0 27 29" fill="none" xmlns="http://www.w3.org/2000/svg">
<path d="M25.9406 23.3232C25.2634 21.7189 24.2805 20.2617 23.0468 19.0327C21.8168 17.8001 20.3599 16.8174 18.7563 16.1388C18.7419 16.1316 18.7276 16.128 18.7132 16.1208C20.95 14.5052 22.4041 11.8734 22.4041 8.90417C22.4041 3.98533 18.4188 0 13.4999 0C8.58112 0 4.59579 3.98533 4.59579 8.90417C4.59579 11.8734 6.04989 14.5052 8.28671 16.1244C8.27234 16.1316 8.25798 16.1352 8.24362 16.1424C6.63513 16.821 5.19179 17.794 3.95311 19.0362C2.72056 20.2662 1.73785 21.7232 1.05925 23.3268C0.392599 24.8967 0.0330565 26.5798 8.97812e-05 28.2851C-0.000868511 28.3234 0.00585279 28.3615 0.0198578 28.3972C0.0338629 28.4329 0.0548682 28.4654 0.0816361 28.4928C0.108404 28.5203 0.140393 28.5421 0.175718 28.557C0.211043 28.5718 0.248989 28.5795 0.287321 28.5795H2.44155C2.59953 28.5795 2.72519 28.4538 2.72878 28.2994C2.80059 25.5277 3.91361 22.9318 5.88114 20.9643C7.9169 18.9285 10.6205 17.8083 13.4999 17.8083C16.3794 17.8083 19.083 18.9285 21.1188 20.9643C23.0863 22.9318 24.1993 25.5277 24.2711 28.2994C24.2747 28.4574 24.4004 28.5795 24.5583 28.5795H26.7126C26.7509 28.5795 26.7889 28.5718 26.8242 28.557C26.8595 28.5421 26.8915 28.5203 26.9183 28.4928C26.945 28.4654 26.966 28.4329 26.98 28.3972C26.994 28.3615 27.0008 28.3234 26.9998 28.2851C26.9639 26.5689 26.6085 24.8993 25.9406 23.3232ZM13.4999 15.0796C11.852 15.0796 10.3009 14.437 9.13404 13.2701C7.96716 12.1032 7.32448 10.5522 7.32448 8.90417C7.32448 7.25618 7.96716 5.70513 9.13404 4.53825C10.3009 3.37138 11.852 2.7287 13.4999 2.7287C15.1479 2.7287 16.699 3.37138 17.8659 4.53825C19.0327 5.70513 19.6754 7.25618 19.6754 8.90417C19.6754 10.5522 19.0327 12.1032 17.8659 13.2701C16.699 14.437 15.1479 15.0796 13.4999 15.0796Z" fill="black" fill-opacity="0.85"/>
</svg>
