<svg width="49" height="49" viewBox="0 0 49 49" fill="none" xmlns="http://www.w3.org/2000/svg">
<path d="M24.5 0C10.9703 0 0 10.9703 0 24.5C0 38.0297 10.9703 49 24.5 49C38.0297 49 49 38.0297 49 24.5C49 10.9703 38.0297 0 24.5 0ZM22.0719 36.75C15.8102 36.75 9.40625 33.7094 9.40625 28.7055C9.40625 26.0914 11.0578 23.0672 13.907 20.2125C17.7078 16.4062 22.143 14.6672 23.8109 16.3406C24.5492 17.0789 24.6203 18.3531 24.1445 19.8734C23.8984 20.6391 24.8609 20.218 24.8609 20.218C27.9344 18.9273 30.6141 18.8508 31.593 20.2563C32.118 21.0055 32.0633 22.05 31.582 23.2695C31.3578 23.8273 31.6531 23.9148 32.0742 24.0406C33.8078 24.5766 35.7328 25.8781 35.7328 28.1695C35.7438 31.9703 30.2805 36.75 22.0719 36.75ZM33.4086 20.8469C33.5121 20.5288 33.5303 20.1891 33.4612 19.8618C33.3921 19.5345 33.2381 19.2311 33.0148 18.982C32.7914 18.7337 32.5063 18.5488 32.1884 18.4461C31.8706 18.3433 31.5312 18.3264 31.2047 18.3969C31.0765 18.4242 30.9442 18.4259 30.8153 18.4021C30.6864 18.3783 30.5635 18.3293 30.4536 18.2579C30.3436 18.1866 30.2488 18.0943 30.1745 17.9863C30.1003 17.8783 30.048 17.7567 30.0207 17.6285C29.9934 17.5003 29.9916 17.368 30.0155 17.2391C30.0393 17.1103 30.0883 16.9873 30.1597 16.8774C30.231 16.7674 30.3233 16.6726 30.4313 16.5984C30.5393 16.5241 30.6609 16.4718 30.7891 16.4445C32.107 16.1656 33.5289 16.5703 34.4914 17.6422C35.4594 18.7141 35.7164 20.1742 35.3062 21.4594C35.2664 21.5838 35.2023 21.6992 35.1176 21.7988C35.033 21.8984 34.9295 21.9803 34.8131 22.0398C34.6968 22.0992 34.5698 22.1351 34.4395 22.1453C34.3092 22.1555 34.1781 22.1398 34.0539 22.0992C33.9292 22.0596 33.8135 21.9957 33.7135 21.9113C33.6135 21.8268 33.5311 21.7234 33.4712 21.6071C33.4112 21.4907 33.3748 21.3637 33.3641 21.2332C33.3533 21.1028 33.3685 20.9715 33.4086 20.8469ZM39.2055 22.7227C39.2055 22.7227 39.2055 22.7281 39.2055 22.7227C39.1595 22.8676 39.0853 23.002 38.9873 23.1182C38.8892 23.2344 38.7691 23.3301 38.6339 23.3997C38.4987 23.4693 38.3511 23.5115 38.1995 23.5239C38.048 23.5363 37.8955 23.5186 37.7508 23.4719C37.4585 23.3768 37.216 23.1696 37.0765 22.8958C36.9371 22.622 36.9121 22.304 37.007 22.0117C37.6086 20.1414 37.2258 18.0086 35.8203 16.4445C35.152 15.7032 34.3004 15.1508 33.351 14.8427C32.4017 14.5345 31.388 14.4816 30.4117 14.6891C30.263 14.7208 30.1096 14.723 29.9601 14.6953C29.8106 14.6677 29.668 14.6109 29.5405 14.5281C29.413 14.4453 29.3031 14.3381 29.217 14.2128C29.131 14.0875 29.0705 13.9464 29.0391 13.7977C29.0067 13.6493 29.004 13.4961 29.031 13.3467C29.0581 13.1973 29.1144 13.0547 29.1967 12.9272C29.279 12.7996 29.3858 12.6896 29.5107 12.6034C29.6357 12.5172 29.7765 12.4566 29.925 12.425C32.6266 11.8508 35.5469 12.6875 37.532 14.8914C39.5172 17.0898 40.0531 20.0922 39.2055 22.7227ZM20.9125 23.0562C15.9141 23.5484 12.1242 26.6164 12.4523 29.9031C12.775 33.1898 17.0898 35.4539 22.0883 34.9617C27.0867 34.4641 30.8766 31.4016 30.5484 28.1094C30.2258 24.8227 25.9109 22.5586 20.9125 23.0562ZM25.2984 30.8055C24.2758 33.1187 21.3445 34.3492 18.8562 33.5453C16.4555 32.7688 15.4383 30.3898 16.4883 28.2516C17.5219 26.1516 20.207 24.9648 22.5859 25.5828C25.0469 26.2227 26.3047 28.5469 25.2984 30.8055ZM20.2125 29.0445C19.4359 28.7219 18.4406 29.0555 17.9594 29.8047C17.4781 30.5594 17.7023 31.4562 18.468 31.8062C19.25 32.1617 20.2836 31.8227 20.7648 31.0516C21.2461 30.2695 20.9945 29.3781 20.2125 29.0445ZM22.1211 28.2516C21.8258 28.1312 21.4539 28.2789 21.2789 28.5688C21.1094 28.8641 21.2023 29.1977 21.5031 29.3234C21.8039 29.4492 22.1922 29.307 22.3672 29.0063C22.5312 28.7 22.4219 28.3609 22.1211 28.2516Z" fill="black" fill-opacity="0.45"/>
</svg>
