<svg width="32" height="32" viewBox="0 0 32 32" fill="none" xmlns="http://www.w3.org/2000/svg">
<path d="M12.9448 25.8895C15.7559 25.8895 18.3482 24.9805 20.4692 23.4655L28.4482 31.4445C28.8185 31.8148 29.3067 32 29.8285 32C30.9227 32 31.697 31.1583 31.697 30.081C31.697 29.576 31.5287 29.0878 31.1583 28.7344L23.2299 20.7891C24.8964 18.6007 25.8895 15.8906 25.8895 12.9448C25.8895 5.8243 20.0652 0 12.9448 0C5.84114 0 0 5.80747 0 12.9448C0 20.0652 5.8243 25.8895 12.9448 25.8895ZM12.9448 23.0952C7.38979 23.0952 2.79432 18.4997 2.79432 12.9448C2.79432 7.38979 7.38979 2.79432 12.9448 2.79432C18.4997 2.79432 23.0952 7.38979 23.0952 12.9448C23.0952 18.4997 18.4997 23.0952 12.9448 23.0952Z" fill="#EBEBF5" fill-opacity="0.6"/>
</svg>
